# xmcd
#
# Track frame offsets:
#	150
#	21422
#	38105
#	55644
#	80922
#	96989
#	118071
#	137334
#	152221
#	169141
#	191083
#	210717
#	228107
#	247931
#	266243
#	284806
#	301559
#
# Disc length: 4238 seconds
#
# Revision: 0
# Processed by: cddbd v1.5PL3 Copyright (c) Steve Scherf et al.
# Submitted via: dBpowerAMP V4.0
#
DISCID=ef108c11
DTITLE=TOP GOLD - GOLD ROMANCE
DYEAR=2004
DGENRE=Blues
TTITLE0=boys 2 men and maria carey - one sweat day
TTITLE1=tracy chapman and b.b king - the trill is gone
TTITLE2=denni rusos and linda taylor - stand by me
TTITLE3=garou and celine dion - sur le vent
TTITLE4=mia martini and roberto murolo - cu'mme
TTITLE5=mark antony and ana gabriel - quiero vivir amando te
TTITLE6=dolly porton and vince gill - i will always love you
TTITLE7=hulio inglezias and diana ross - all of you
TTITLE8=dulce pontes and andrea boccelle - o mare e tu
TTITLE9=terence trent d'arby and des'ree - delicate
TTITLE10=prince and rosie gaines - nothing compare to you
TTITLE11=lisa stansfield& babyface - dream away
TTITLE12=eros ramazzoti and cher - piu che puoi
TTITLE13=nick cave and pj harvey - henry lee
TTITLE14=kylie minogue and jason donovan - especially for you
TTITLE15=sheryl crow and kid rock - picture
TTITLE16=mina and alberto lupo - parole parole
EXTD=
EXTT0=
EXTT1=
EXTT2=
EXTT3=
EXTT4=
EXTT5=
EXTT6=
EXTT7=
EXTT8=
EXTT9=
EXTT10=
EXTT11=
EXTT12=
EXTT13=
EXTT14=
EXTT15=
EXTT16=
PLAYORDER=
